# xmcd
# 
# Track frame offsets:
#     150
#     17717
#     33515
#     53102
#     69837
#     88092
#     113902
#     129017
#     148090
#     169572
# 
# Disc length: 2550
# 
# Revision: 1
# Processed by: cddbd v1.5.2PL0 Copyright (c) Steve Scherf et al.
# Submitted via: BonkEnc v1.0.6
# 
DISCID=7c09f40a
DTITLE=MARCY - 夜をぶっとばせ!
DYEAR=0
DGENRE=Rock
TTITLE0=夜をぶっとばせ!
TTITLE1=一枚のPHOTOGRAPH
TTITLE2=天使よ故郷を見よ
TTITLE3=HOT SWEET "CANDY"
TTITLE4=MEMORIES
TTITLE5=MIDNIGHT JUNGLE
TTITLE6=STILL
TTITLE7=PREMONITION
TTITLE8=HELLO GOOD-BYE
TTITLE9=TENDER
EXTD=
EXTT0=
EXTT1=
EXTT2=
EXTT3=
EXTT4=
EXTT5=
EXTT6=
EXTT7=
EXTT8=
EXTT9=
PLAYORDER=
